<svg width="15" height="15" viewBox="0 0 15 15" fill="none" xmlns="http://www.w3.org/2000/svg">
<path d="M7.375 -0.000244141C8.31983 -0.000244141 9.22597 0.375089 9.89407 1.04319C10.5622 1.71129 10.9375 2.61742 10.9375 3.56226C10.9375 4.50709 10.5622 5.41323 9.89407 6.08132C9.22597 6.74942 8.31983 7.12476 7.375 7.12476C6.43017 7.12476 5.52403 6.74942 4.85593 6.08132C4.18783 5.41323 3.8125 4.50709 3.8125 3.56226C3.8125 2.61742 4.18783 1.71129 4.85593 1.04319C5.52403 0.375089 6.43017 -0.000244141 7.375 -0.000244141ZM7.375 8.90601C11.3116 8.90601 14.5 10.5002 14.5 12.4685V14.2498H0.25V12.4685C0.25 10.5002 3.43844 8.90601 7.375 8.90601Z" fill="white"/>
</svg>
