<svg width="106" height="106" viewBox="0 0 106 106" fill="none" xmlns="http://www.w3.org/2000/svg">
<circle cx="53" cy="53" r="49" stroke="#232B59" stroke-opacity="0.25" stroke-width="8"/>
<path d="M75.5723 31.0717L53.9663 23.7331C53.7057 23.6443 53.3559 23.6 53.0062 23.6C52.6565 23.6 52.3068 23.6443 52.0461 23.7331L30.4401 31.0717C29.9124 31.2492 29.48 31.8575 29.48 32.4152V62.9866C29.48 63.5443 29.8424 64.2795 30.2812 64.628L52.1987 81.6501C52.4212 81.8213 52.7074 81.91 52.9999 81.91C53.2924 81.91 53.5848 81.8213 53.801 81.6501L75.7186 64.628C76.1573 64.2858 76.5197 63.5507 76.5197 62.9866V32.4152C76.5324 31.8575 76.1001 31.2555 75.5723 31.0717ZM71.9544 61.7699L53.0062 76.4852L34.0581 61.7699V34.6713L53.0062 28.2326L71.9544 34.6713V61.7699ZM46.1518 49.0318C45.9611 48.7719 45.6559 48.6135 45.3252 48.6135H41.8154C41.4021 48.6135 41.1605 49.0825 41.4021 49.4184L49.4391 60.4454C49.5342 60.575 49.6586 60.6805 49.8022 60.7532C49.9458 60.8259 50.1046 60.8638 50.2657 60.8638C50.4268 60.8638 50.5856 60.8259 50.7293 60.7532C50.8729 60.6805 50.9973 60.575 51.0923 60.4454L64.6104 41.8959C64.852 41.56 64.6104 41.0911 64.1971 41.0911H60.6872C60.3629 41.0911 60.0514 41.2495 59.8606 41.5093L50.2657 54.6784L46.1518 49.0318Z" fill="#232B59" fill-opacity="0.25"/>
</svg>
