<svg width="106" height="106" viewBox="0 0 106 106" fill="none" xmlns="http://www.w3.org/2000/svg">
<circle cx="53" cy="53" r="49" stroke="#232B59" stroke-opacity="0.25" stroke-width="8"/>
<path d="M72.11 69.405H67.3325C66.9012 69.405 66.528 69.2474 66.2128 68.9322C65.8976 68.617 65.74 68.2438 65.74 67.8125V51.8875C65.74 51.4562 65.8976 51.083 66.2128 50.7678C66.528 50.4526 66.9012 50.295 67.3325 50.295H68.925C68.925 45.3848 67.5565 41.5031 64.8194 38.6498C62.0822 35.7966 58.1425 34.37 53 34.37C47.8576 34.37 43.9178 35.7966 41.1807 38.6498C38.4436 41.5031 37.075 45.3848 37.075 50.295H38.6675C39.0988 50.295 39.4721 50.4526 39.7872 50.7678C40.1024 51.083 40.26 51.4562 40.26 51.8875V67.8125C40.26 68.2438 40.1024 68.617 39.7872 68.9322C39.4721 69.2474 39.0988 69.405 38.6675 69.405H37.075C37.075 71.1634 37.6971 72.6646 38.9412 73.9088C40.1854 75.1529 41.6866 75.775 43.445 75.775H46.63C46.63 74.8792 46.9369 74.1244 47.5507 73.5107C48.1645 72.8969 48.9192 72.59 49.815 72.59H53C53.8958 72.59 54.6506 72.8969 55.2644 73.5107C55.8781 74.1244 56.185 74.8709 56.185 75.7501C56.185 76.6293 55.8781 77.3841 55.2644 78.0145C54.6506 78.6448 53.8958 78.96 53 78.96H43.445C40.7909 78.96 38.5348 78.031 36.6769 76.1731C34.819 74.3152 33.89 72.0592 33.89 69.405C32.1316 69.405 30.6304 68.476 29.3862 66.6181C28.1421 64.7602 27.52 62.5042 27.52 59.85C27.52 58.1248 27.8103 56.5323 28.3909 55.0725C28.9715 53.6127 29.7429 52.4681 30.705 51.6387V50.295C30.705 47.2759 31.2939 44.3895 32.4717 41.6358C33.6495 38.8821 35.2337 36.5099 37.2243 34.5193C39.2149 32.5287 41.5871 30.9445 44.3408 29.7667C47.0945 28.5889 49.9809 28 53 28C56.0191 28 58.9055 28.5889 61.6592 29.7667C64.4129 30.9445 66.7851 32.5287 68.7757 34.5193C70.7663 36.5099 72.3506 38.8821 73.5283 41.6358C74.7061 44.3895 75.295 47.2759 75.295 50.295V51.6387C76.2572 52.4681 77.0285 53.6127 77.6091 55.0725C78.1897 56.5323 78.48 58.1248 78.48 59.85C78.48 62.5042 77.8579 64.7602 76.6138 66.6181C75.3697 68.476 73.8684 69.405 72.11 69.405Z" fill="#232B59" fill-opacity="0.25"/>
</svg>
