<svg width="106" height="106" viewBox="0 0 106 106" fill="none" xmlns="http://www.w3.org/2000/svg">
<circle cx="53" cy="53" r="49" stroke="#232B59" stroke-opacity="0.25" stroke-width="8"/>
<path d="M53 79C63.437 79 74 75.4276 74 68.6V37.4C74 30.5724 63.437 27 53 27C42.563 27 32 30.5724 32 37.4V68.6C32 75.4276 42.563 79 53 79ZM53 73.8C43.2298 73.8 37.25 70.433 37.25 68.6V65.3032C41.2951 67.482 47.1646 68.6 53 68.6C58.8354 68.6 64.7049 67.482 68.75 65.3032V68.6C68.75 70.433 62.7702 73.8 53 73.8ZM53 32.2C62.7702 32.2 68.75 35.567 68.75 37.4C68.75 39.233 62.7702 42.6 53 42.6C43.2298 42.6 37.25 39.233 37.25 37.4C37.25 35.567 43.2298 32.2 53 32.2ZM37.25 44.5032C41.2951 46.682 47.1646 47.8 53 47.8C58.8354 47.8 64.7049 46.682 68.75 44.5032V47.8C68.75 49.633 62.7702 53 53 53C43.2298 53 37.25 49.633 37.25 47.8V44.5032ZM37.25 54.9032C41.2951 57.082 47.1646 58.2 53 58.2C58.8354 58.2 64.7049 57.082 68.75 54.9032V58.2C68.75 60.033 62.7702 63.4 53 63.4C43.2298 63.4 37.25 60.033 37.25 58.2V54.9032Z" fill="#232B59" fill-opacity="0.25"/>
</svg>
