<svg width="31" height="30" viewBox="0 0 31 30" fill="none" xmlns="http://www.w3.org/2000/svg">
<path d="M18.169 29.8047C18.044 29.8251 17.9184 29.8439 17.7925 29.861C17.9184 29.8439 18.044 29.8251 18.169 29.8047Z" fill="white"/>
<path d="M18.4687 29.7537C18.409 29.7646 18.3493 29.7747 18.2896 29.785C18.3493 29.7747 18.409 29.7646 18.4687 29.7537Z" fill="white"/>
<path d="M17.4566 29.9028C17.3106 29.9193 17.1637 29.9339 17.0164 29.9462C17.1637 29.9339 17.3106 29.9193 17.4566 29.9028Z" fill="white"/>
<path d="M17.745 29.8674C17.6749 29.8768 17.6043 29.8855 17.5339 29.8937C17.6043 29.8855 17.6749 29.8768 17.745 29.8674Z" fill="white"/>
<path d="M18.8766 29.6724C18.824 29.6836 18.7713 29.6948 18.7185 29.7055C18.7713 29.6948 18.824 29.6836 18.8766 29.6724Z" fill="white"/>
<path d="M19.8909 29.4207C19.8482 29.4328 19.8054 29.4443 19.7627 29.4563C19.8054 29.4443 19.8482 29.4328 19.8909 29.4207Z" fill="white"/>
<path d="M19.5848 29.5046C19.5384 29.5168 19.4917 29.5292 19.4451 29.541C19.4917 29.5292 19.5384 29.517 19.5848 29.5046Z" fill="white"/>
<path d="M19.1825 29.6045C19.1336 29.6159 19.0843 29.6267 19.0349 29.6376C19.0843 29.6267 19.1336 29.6159 19.1825 29.6045Z" fill="white"/>
<path d="M17.0111 29.9468C16.9323 29.9534 16.8535 29.9593 16.7744 29.9646C16.8535 29.9593 16.9323 29.9534 17.0111 29.9468Z" fill="white"/>
<path d="M30.75 15C30.75 6.717 24.033 0 15.75 0C7.467 0 0.75 6.717 0.75 15C0.75 23.283 7.467 30 15.75 30C15.8381 30 15.9258 29.9982 16.0137 29.9966V18.3197H12.791V14.564H16.0137V11.8002C16.0137 8.59497 17.9704 6.85043 20.8296 6.85043C22.1987 6.85043 23.3757 6.95251 23.7188 6.99806V10.348H21.7472C20.1917 10.348 19.8905 11.0873 19.8905 12.1719V14.564H23.6098L23.125 18.3197H19.8905V29.4205C26.1602 27.6231 30.75 21.8468 30.75 15Z" fill="white"/>
<path d="M16.7402 29.9666C16.5844 29.9766 16.4279 29.9846 16.271 29.9899C16.4279 29.9846 16.5844 29.9766 16.7402 29.9666Z" fill="white"/>
<path d="M16.2625 29.9902C16.1798 29.993 16.0968 29.995 16.0139 29.9964C16.0968 29.995 16.1798 29.993 16.2625 29.9902Z" fill="white"/>
</svg>
