<svg width="16" height="15" viewBox="0 0 16 15" fill="none" xmlns="http://www.w3.org/2000/svg">
<path d="M11.375 0.75C10.07 0.75 8.8175 1.3575 8 2.3175C7.1825 1.3575 5.93 0.75 4.625 0.75C2.315 0.75 0.5 2.565 0.5 4.875C0.5 7.71 3.05 10.02 6.9125 13.53L8 14.5125L9.0875 13.5225C12.95 10.02 15.5 7.71 15.5 4.875C15.5 2.565 13.685 0.75 11.375 0.75ZM8.075 12.4125L8 12.4875L7.925 12.4125C4.355 9.18 2 7.0425 2 4.875C2 3.375 3.125 2.25 4.625 2.25C5.78 2.25 6.905 2.9925 7.3025 4.02H8.705C9.095 2.9925 10.22 2.25 11.375 2.25C12.875 2.25 14 3.375 14 4.875C14 7.0425 11.645 9.18 8.075 12.4125Z" fill="white"/>
</svg>
