<svg width="30" height="30" viewBox="0 0 30 30" fill="none" xmlns="http://www.w3.org/2000/svg">
<path d="M17.8711 15C17.8711 16.5857 16.5857 17.8711 15 17.8711C13.4143 17.8711 12.1289 16.5857 12.1289 15C12.1289 13.4143 13.4143 12.1289 15 12.1289C16.5857 12.1289 17.8711 13.4143 17.8711 15Z" fill="white"/>
<path d="M21.7147 9.92015C21.5766 9.54616 21.3565 9.20764 21.0704 8.92978C20.7925 8.64368 20.4542 8.42349 20.08 8.28548C19.7765 8.1676 19.3206 8.0273 18.4808 7.98907C17.5724 7.94765 17.3 7.93872 15.0002 7.93872C12.7001 7.93872 12.4278 7.94742 11.5196 7.98885C10.6798 8.0273 10.2236 8.1676 9.92038 8.28548C9.54616 8.42349 9.20764 8.64368 8.93001 8.92978C8.64391 9.20764 8.42372 9.54593 8.28548 9.92015C8.1676 10.2236 8.0273 10.6798 7.98907 11.5196C7.94765 12.4278 7.93872 12.7001 7.93872 15.0002C7.93872 17.3 7.94765 17.5724 7.98907 18.4808C8.0273 19.3206 8.1676 19.7765 8.28548 20.08C8.42372 20.4542 8.64368 20.7925 8.92978 21.0704C9.20764 21.3565 9.54593 21.5766 9.92015 21.7147C10.2236 21.8328 10.6798 21.9731 11.5196 22.0113C12.4278 22.0527 12.6999 22.0614 15 22.0614C17.3002 22.0614 17.5726 22.0527 18.4806 22.0113C19.3203 21.9731 19.7765 21.8328 20.08 21.7147C20.8312 21.4249 21.4249 20.8312 21.7147 20.08C21.8325 19.7765 21.9728 19.3206 22.0113 18.4808C22.0527 17.5724 22.0614 17.3 22.0614 15.0002C22.0614 12.7001 22.0527 12.4278 22.0113 11.5196C21.9731 10.6798 21.8328 10.2236 21.7147 9.92015ZM15.0002 19.4229C12.5573 19.4229 10.577 17.4428 10.577 15C10.577 12.5571 12.5573 10.577 15.0002 10.577C17.4428 10.577 19.4231 12.5571 19.4231 15C19.4231 17.4428 17.4428 19.4229 15.0002 19.4229ZM19.598 11.4358C19.0271 11.4358 18.5643 10.973 18.5643 10.4022C18.5643 9.83134 19.0271 9.36855 19.598 9.36855C20.1688 9.36855 20.6316 9.83134 20.6316 10.4022C20.6314 10.973 20.1688 11.4358 19.598 11.4358Z" fill="white"/>
<path d="M15 -0.000488281C6.717 -0.000488281 0 6.71651 0 14.9995C0 23.2825 6.717 29.9995 15 29.9995C23.283 29.9995 30 23.2825 30 14.9995C30 6.71651 23.283 -0.000488281 15 -0.000488281ZM23.5613 18.5506C23.5197 19.4675 23.3739 20.0935 23.161 20.6414C22.7135 21.7984 21.7989 22.7131 20.6419 23.1605C20.0942 23.3734 19.468 23.519 18.5513 23.5608C17.6328 23.6027 17.3394 23.6128 15.0002 23.6128C12.6608 23.6128 12.3676 23.6027 11.4489 23.5608C10.5322 23.519 9.90601 23.3734 9.35829 23.1605C8.78334 22.9442 8.26286 22.6053 7.83257 22.1669C7.39449 21.7369 7.05551 21.2162 6.83922 20.6414C6.62636 20.0937 6.48056 19.4675 6.4389 18.5508C6.39656 17.6321 6.38672 17.3387 6.38672 14.9995C6.38672 12.6603 6.39656 12.3669 6.43867 11.4484C6.48033 10.5315 6.6259 9.90552 6.83876 9.35757C7.05505 8.78285 7.39426 8.26215 7.83257 7.83208C8.26263 7.39377 8.78334 7.05479 9.35806 6.8385C9.90601 6.62564 10.532 6.48007 11.4489 6.43819C12.3674 6.3963 12.6608 6.38623 15 6.38623C17.3392 6.38623 17.6326 6.3963 18.5511 6.43842C19.468 6.48007 20.094 6.62564 20.6419 6.83827C21.2167 7.05457 21.7374 7.39377 22.1677 7.83208C22.6057 8.26237 22.9449 8.78285 23.161 9.35757C23.3741 9.90552 23.5197 10.5315 23.5616 11.4484C23.6034 12.3669 23.6133 12.6603 23.6133 14.9995C23.6133 17.3387 23.6034 17.6321 23.5613 18.5506Z" fill="white"/>
</svg>
