<svg width="139" height="31" viewBox="0 0 139 31" fill="none" xmlns="http://www.w3.org/2000/svg">
<path d="M49.5532 18.5053L54.3105 15.6249L49.5532 12.7444V18.5053Z" fill="white"/>
<path d="M51.375 0.25C43.2991 0.25 36.75 7.13492 36.75 15.625C36.75 24.1151 43.2991 31 51.375 31C59.4509 31 66 24.1151 66 15.625C66 7.13492 59.4509 0.25 51.375 0.25ZM60.5134 15.6407C60.5134 15.6407 60.5134 18.7588 60.1371 20.2624C59.9263 21.0854 59.309 21.7343 58.5262 21.9558C57.0959 22.3516 51.375 22.3516 51.375 22.3516C51.375 22.3516 45.669 22.3516 44.2238 21.9401C43.441 21.7186 42.8237 21.0695 42.6129 20.2465C42.2364 18.7588 42.2364 15.625 42.2364 15.625C42.2364 15.625 42.2364 12.5071 42.6129 11.0035C42.8235 10.1805 43.456 9.51568 44.2238 9.29421C45.6541 8.89844 51.375 8.89844 51.375 8.89844C51.375 8.89844 57.0959 8.89844 58.5262 9.30993C59.309 9.5314 59.9263 10.1805 60.1371 11.0035C60.5286 12.5071 60.5134 15.6407 60.5134 15.6407Z" fill="white"/>
<path d="M17.8711 16C17.8711 17.5857 16.5857 18.8711 15 18.8711C13.4143 18.8711 12.1289 17.5857 12.1289 16C12.1289 14.4143 13.4143 13.1289 15 13.1289C16.5857 13.1289 17.8711 14.4143 17.8711 16Z" fill="white"/>
<path d="M21.7147 10.9202C21.5766 10.5462 21.3565 10.2076 21.0704 9.92978C20.7925 9.64368 20.4542 9.42349 20.08 9.28548C19.7765 9.1676 19.3206 9.0273 18.4808 8.98907C17.5724 8.94765 17.3 8.93872 15.0002 8.93872C12.7001 8.93872 12.4278 8.94742 11.5196 8.98885C10.6798 9.0273 10.2236 9.1676 9.92038 9.28548C9.54616 9.42349 9.20764 9.64368 8.93001 9.92978C8.64391 10.2076 8.42372 10.5459 8.28548 10.9202C8.1676 11.2236 8.0273 11.6798 7.98907 12.5196C7.94765 13.4278 7.93872 13.7001 7.93872 16.0002C7.93872 18.3 7.94765 18.5724 7.98907 19.4808C8.0273 20.3206 8.1676 20.7765 8.28548 21.08C8.42372 21.4542 8.64368 21.7925 8.92978 22.0704C9.20764 22.3565 9.54593 22.5766 9.92015 22.7147C10.2236 22.8328 10.6798 22.9731 11.5196 23.0113C12.4278 23.0527 12.6999 23.0614 15 23.0614C17.3002 23.0614 17.5726 23.0527 18.4806 23.0113C19.3203 22.9731 19.7765 22.8328 20.08 22.7147C20.8312 22.4249 21.4249 21.8312 21.7147 21.08C21.8325 20.7765 21.9728 20.3206 22.0113 19.4808C22.0527 18.5724 22.0614 18.3 22.0614 16.0002C22.0614 13.7001 22.0527 13.4278 22.0113 12.5196C21.9731 11.6798 21.8328 11.2236 21.7147 10.9202ZM15.0002 20.4229C12.5573 20.4229 10.577 18.4428 10.577 16C10.577 13.5571 12.5573 11.577 15.0002 11.577C17.4428 11.577 19.4231 13.5571 19.4231 16C19.4231 18.4428 17.4428 20.4229 15.0002 20.4229ZM19.598 12.4358C19.0271 12.4358 18.5643 11.973 18.5643 11.4022C18.5643 10.8313 19.0271 10.3685 19.598 10.3685C20.1688 10.3685 20.6316 10.8313 20.6316 11.4022C20.6314 11.973 20.1688 12.4358 19.598 12.4358Z" fill="white"/>
<path d="M15 0.999512C6.717 0.999512 0 7.71651 0 15.9995C0 24.2825 6.717 30.9995 15 30.9995C23.283 30.9995 30 24.2825 30 15.9995C30 7.71651 23.283 0.999512 15 0.999512ZM23.5613 19.5506C23.5197 20.4675 23.3739 21.0935 23.161 21.6414C22.7135 22.7984 21.7989 23.7131 20.6419 24.1605C20.0942 24.3734 19.468 24.519 18.5513 24.5608C17.6328 24.6027 17.3394 24.6128 15.0002 24.6128C12.6608 24.6128 12.3676 24.6027 11.4489 24.5608C10.5322 24.519 9.90601 24.3734 9.35829 24.1605C8.78334 23.9442 8.26286 23.6053 7.83257 23.1669C7.39449 22.7369 7.05551 22.2162 6.83922 21.6414C6.62636 21.0937 6.48056 20.4675 6.4389 19.5508C6.39656 18.6321 6.38672 18.3387 6.38672 15.9995C6.38672 13.6603 6.39656 13.3669 6.43867 12.4484C6.48033 11.5315 6.6259 10.9055 6.83876 10.3576C7.05505 9.78285 7.39426 9.26215 7.83257 8.83208C8.26263 8.39377 8.78334 8.05479 9.35806 7.8385C9.90601 7.62564 10.532 7.48007 11.4489 7.43819C12.3674 7.3963 12.6608 7.38623 15 7.38623C17.3392 7.38623 17.6326 7.3963 18.5511 7.43842C19.468 7.48007 20.094 7.62564 20.6419 7.83827C21.2167 8.05457 21.7374 8.39377 22.1677 8.83208C22.6057 9.26237 22.9449 9.78285 23.161 10.3576C23.3741 10.9055 23.5197 11.5315 23.5616 12.4484C23.6034 13.3669 23.6133 13.6603 23.6133 15.9995C23.6133 18.3387 23.6034 18.6321 23.5613 19.5506Z" fill="white"/>
<path d="M90.169 30.8047C90.044 30.8251 89.9184 30.8439 89.7925 30.861C89.9184 30.8439 90.044 30.8251 90.169 30.8047Z" fill="white"/>
<path d="M90.4687 30.7537C90.409 30.7646 90.3493 30.7747 90.2896 30.785C90.3493 30.7747 90.409 30.7646 90.4687 30.7537Z" fill="white"/>
<path d="M89.4566 30.9028C89.3106 30.9193 89.1637 30.9339 89.0164 30.9462C89.1637 30.9339 89.3106 30.9193 89.4566 30.9028Z" fill="white"/>
<path d="M89.745 30.8674C89.6749 30.8768 89.6043 30.8855 89.5339 30.8937C89.6043 30.8855 89.6749 30.8768 89.745 30.8674Z" fill="white"/>
<path d="M90.8766 30.6724C90.824 30.6836 90.7713 30.6948 90.7185 30.7055C90.7713 30.6948 90.824 30.6836 90.8766 30.6724Z" fill="white"/>
<path d="M91.8909 30.4207C91.8482 30.4328 91.8054 30.4443 91.7627 30.4563C91.8054 30.4443 91.8482 30.4328 91.8909 30.4207Z" fill="white"/>
<path d="M91.5848 30.5046C91.5384 30.5168 91.4917 30.5292 91.4451 30.541C91.4917 30.5292 91.5384 30.517 91.5848 30.5046Z" fill="white"/>
<path d="M91.1825 30.6045C91.1336 30.6159 91.0843 30.6267 91.0349 30.6376C91.0843 30.6267 91.1336 30.6159 91.1825 30.6045Z" fill="white"/>
<path d="M89.0111 30.9468C88.9323 30.9534 88.8535 30.9593 88.7744 30.9646C88.8535 30.9593 88.9323 30.9534 89.0111 30.9468Z" fill="white"/>
<path d="M102.75 16C102.75 7.717 96.033 1 87.75 1C79.467 1 72.75 7.717 72.75 16C72.75 24.283 79.467 31 87.75 31C87.8381 31 87.9258 30.9982 88.0137 30.9966V19.3197H84.791V15.564H88.0137V12.8002C88.0137 9.59497 89.9704 7.85043 92.8296 7.85043C94.1987 7.85043 95.3757 7.95251 95.7188 7.99806V11.348H93.7472C92.1917 11.348 91.8905 12.0873 91.8905 13.1719V15.564H95.6098L95.125 19.3197H91.8905V30.4205C98.1602 28.6231 102.75 22.8468 102.75 16Z" fill="white"/>
<path d="M88.7402 30.9666C88.5844 30.9766 88.4279 30.9846 88.271 30.9899C88.4279 30.9846 88.5844 30.9766 88.7402 30.9666Z" fill="white"/>
<path d="M88.2625 30.9902C88.1798 30.993 88.0968 30.995 88.0139 30.9964C88.0968 30.995 88.1798 30.993 88.2625 30.9902Z" fill="white"/>
<path d="M124.125 0.25C116.049 0.25 109.5 7.13492 109.5 15.625C109.5 24.1151 116.049 31 124.125 31C132.201 31 138.75 24.1151 138.75 15.625C138.75 7.13492 132.201 0.25 124.125 0.25ZM130.803 12.2378C130.809 12.3891 130.812 12.5411 130.812 12.6939C130.812 17.3571 127.436 22.7344 121.261 22.7347H121.261H121.261C119.365 22.7347 117.601 22.1505 116.116 21.1495C116.378 21.1821 116.646 21.1982 116.916 21.1982C118.489 21.1982 119.937 20.6343 121.086 19.6876C119.616 19.659 118.377 18.6387 117.95 17.2365C118.154 17.2778 118.365 17.3003 118.581 17.3003C118.887 17.3003 119.184 17.2569 119.466 17.176C117.93 16.8527 116.773 15.4256 116.773 13.7167C116.773 13.7008 116.773 13.6865 116.773 13.6717C117.226 13.9361 117.743 14.0951 118.294 14.113C117.392 13.4807 116.8 12.3999 116.8 11.1755C116.8 10.5289 116.966 9.92319 117.254 9.40166C118.91 11.537 121.384 12.9414 124.174 13.0889C124.116 12.8304 124.086 12.5611 124.086 12.2842C124.086 10.3361 125.59 8.75556 127.444 8.75556C128.409 8.75556 129.281 9.18465 129.894 9.87064C130.659 9.71204 131.377 9.41832 132.026 9.0141C131.774 9.83779 131.242 10.5289 130.549 10.966C131.228 10.8806 131.876 10.6913 132.477 10.4102C132.028 11.118 131.458 11.7397 130.803 12.2378Z" fill="white"/>
</svg>
