<svg width="10" height="16" viewBox="0 0 10 16" fill="none" xmlns="http://www.w3.org/2000/svg">
<path d="M5.19043 0.25C2.59944 0.25 0.5 2.34099 0.5 4.93105C0.5 9.40947 5.19043 15.25 5.19043 15.25C5.19043 15.25 9.88086 9.40854 9.88086 4.93105C9.88086 2.34193 7.78143 0.25 5.19043 0.25ZM5.19043 7.52111C4.51868 7.52111 3.87445 7.25426 3.39945 6.77926C2.92445 6.30426 2.6576 5.66002 2.6576 4.98827C2.6576 4.31652 2.92445 3.67229 3.39945 3.19729C3.87445 2.72229 4.51868 2.45544 5.19043 2.45544C5.86218 2.45544 6.50642 2.72229 6.98142 3.19729C7.45641 3.67229 7.72327 4.31652 7.72327 4.98827C7.72327 5.66002 7.45641 6.30426 6.98142 6.77926C6.50642 7.25426 5.86218 7.52111 5.19043 7.52111Z" fill="white"/>
</svg>
