<svg width="14" height="15" viewBox="0 0 14 15" fill="none" xmlns="http://www.w3.org/2000/svg">
<path d="M13.4594 13.2796L9.07702 8.89721C9.75708 8.01803 10.125 6.9431 10.125 5.81248C10.125 4.45911 9.59677 3.19011 8.64165 2.23331C7.68653 1.2765 6.41416 0.75 5.06248 0.75C3.7108 0.75 2.43843 1.27819 1.48331 2.23331C0.526498 3.18843 0 4.45911 0 5.81248C0 7.16416 0.528185 8.43653 1.48331 9.39165C2.43843 10.3485 3.70911 10.875 5.06248 10.875C6.1931 10.875 7.26634 10.5071 8.14553 9.82871L12.5279 14.2094C12.5408 14.2223 12.5561 14.2325 12.5728 14.2395C12.5896 14.2464 12.6076 14.25 12.6258 14.25C12.644 14.25 12.662 14.2464 12.6788 14.2395C12.6956 14.2325 12.7108 14.2223 12.7237 14.2094L13.4594 13.4754C13.4723 13.4625 13.4825 13.4473 13.4895 13.4305C13.4964 13.4137 13.5 13.3957 13.5 13.3775C13.5 13.3593 13.4964 13.3413 13.4895 13.3245C13.4825 13.3077 13.4723 13.2925 13.4594 13.2796ZM7.73547 8.48547C7.01997 9.19928 6.0716 9.59246 5.06248 9.59246C4.05336 9.59246 3.10499 9.19928 2.38949 8.48547C1.67568 7.76997 1.28249 6.8216 1.28249 5.81248C1.28249 4.80336 1.67568 3.8533 2.38949 3.13949C3.10499 2.42568 4.05336 2.03249 5.06248 2.03249C6.0716 2.03249 7.02166 2.42399 7.73547 3.13949C8.44928 3.85499 8.84246 4.80336 8.84246 5.81248C8.84246 6.8216 8.44928 7.77166 7.73547 8.48547Z" fill="white"/>
</svg>
