<svg width="30" height="31" viewBox="0 0 30 31" fill="none" xmlns="http://www.w3.org/2000/svg">
<path d="M15.125 0.25C7.04907 0.25 0.5 7.13492 0.5 15.625C0.5 24.1151 7.04907 31 15.125 31C23.2009 31 29.75 24.1151 29.75 15.625C29.75 7.13492 23.2009 0.25 15.125 0.25ZM21.8026 12.2378C21.8091 12.3891 21.8122 12.5411 21.8122 12.6939C21.8122 17.3571 18.4358 22.7344 12.2612 22.7347H12.2614H12.2612C10.3654 22.7347 8.60137 22.1505 7.1158 21.1495C7.37845 21.1821 7.6458 21.1982 7.91649 21.1982C9.48932 21.1982 10.9367 20.6343 12.0858 19.6876C10.6163 19.659 9.3773 18.6387 8.94972 17.2365C9.15436 17.2778 9.3648 17.3003 9.5806 17.3003C9.88699 17.3003 10.1838 17.2569 10.4659 17.176C8.92986 16.8527 7.77278 15.4256 7.77278 13.7167C7.77278 13.7008 7.77278 13.6865 7.77322 13.6717C8.22557 13.9361 8.74285 14.0951 9.29361 14.113C8.39227 13.4807 7.79978 12.3999 7.79978 11.1755C7.79978 10.5289 7.96603 9.92319 8.25436 9.40166C9.90976 11.537 12.3837 12.9414 15.1736 13.0889C15.1161 12.8304 15.0864 12.5611 15.0864 12.2842C15.0864 10.3361 16.5898 8.75556 18.4436 8.75556C19.4092 8.75556 20.2813 9.18465 20.8939 9.87064C21.6587 9.71204 22.3768 9.41832 23.0255 9.0141C22.7745 9.83779 22.2425 10.5289 21.5493 10.966C22.2284 10.8806 22.8756 10.6913 23.477 10.4102C23.0278 11.118 22.458 11.7397 21.8026 12.2378Z" fill="white"/>
</svg>
