<svg width="30" height="31" viewBox="0 0 30 31" fill="none" xmlns="http://www.w3.org/2000/svg">
<path d="M13.5532 18.5053L18.3105 15.6249L13.5532 12.7444V18.5053Z" fill="white"/>
<path d="M15.375 0.25C7.29907 0.25 0.75 7.13492 0.75 15.625C0.75 24.1151 7.29907 31 15.375 31C23.4509 31 30 24.1151 30 15.625C30 7.13492 23.4509 0.25 15.375 0.25ZM24.5134 15.6407C24.5134 15.6407 24.5134 18.7588 24.1371 20.2624C23.9263 21.0854 23.309 21.7343 22.5262 21.9558C21.0959 22.3516 15.375 22.3516 15.375 22.3516C15.375 22.3516 9.66903 22.3516 8.22384 21.9401C7.441 21.7186 6.82374 21.0695 6.61285 20.2465C6.23638 18.7588 6.23638 15.625 6.23638 15.625C6.23638 15.625 6.23638 12.5071 6.61285 11.0035C6.82352 10.1805 7.45595 9.51568 8.22384 9.29421C9.65407 8.89844 15.375 8.89844 15.375 8.89844C15.375 8.89844 21.0959 8.89844 22.5262 9.30993C23.309 9.5314 23.9263 10.1805 24.1371 11.0035C24.5286 12.5071 24.5134 15.6407 24.5134 15.6407Z" fill="white"/>
</svg>
